<svg xmlns="http://www.w3.org/2000/svg" version="1.1" viewBox="0 0 1300 530.23">
  <path fill="#000" fill-rule="evenodd" d="M182.848 461.813a48.8 48.8 0 0 1 0 28.151 24.05 24.05 0 0 1-5.228 8.586 16.54 16.54 0 0 1-6.642 4.364 18.44 18.44 0 0 1-14.13 0 16.54 16.54 0 0 1-6.641-4.364 24.05 24.05 0 0 1-5.229-8.586 48.8 48.8 0 0 1 0-28.15 24.05 24.05 0 0 1 5.229-8.586 16.54 16.54 0 0 1 6.64-4.364 18.44 18.44 0 0 1 14.131 0 16.54 16.54 0 0 1 6.642 4.364 24.05 24.05 0 0 1 5.228 8.585m306.63-2.815-10.032 31.81h19.641l-9.326-31.81Zm-411.76 41.664H32.075v-76.289H0v103.454h78Zm138.336-25.195a60.5 60.5 0 0 0-3.815-21.817 51.2 51.2 0 0 0-10.598-17.031 49 49 0 0 0-16.674-11.26 58.86 58.86 0 0 0-42.39 0 49 49 0 0 0-16.675 11.26 51.5 51.5 0 0 0-10.739 17.03 66.6 66.6 0 0 0 0 43.634 52.2 52.2 0 0 0 10.74 17.172 50.9 50.9 0 0 0 16.673 11.12 58.86 58.86 0 0 0 42.391 0 50.9 50.9 0 0 0 16.674-11.12 51.8 51.8 0 0 0 10.598-17.172 60.5 60.5 0 0 0 4.663-21.253zm123.642 18.58a28.06 28.06 0 0 0-2.403-12.106 24.5 24.5 0 0 0-6.64-8.445 44.4 44.4 0 0 0-9.327-5.63 76 76 0 0 0-10.456-3.378c-3.674-1.126-7.207-1.97-10.74-2.815a73 73 0 0 1-9.608-2.534 25.5 25.5 0 0 1-6.783-3.096 6.61 6.61 0 0 1-2.967-4.645 5.47 5.47 0 0 1 1.13-3.52 7.2 7.2 0 0 1 2.968-2.11 15.2 15.2 0 0 1 3.815-.986 16.7 16.7 0 0 1 3.674 0 20.6 20.6 0 0 1 4.945 0 12.3 12.3 0 0 1 4.38 1.97 9.3 9.3 0 0 1 3.25 3.379 8 8 0 0 1 0 4.926h30.24a33.95 33.95 0 0 0-3.815-15.905 32.4 32.4 0 0 0-9.609-10.416 44.2 44.2 0 0 0-14.13-5.77 76.3 76.3 0 0 0-14.696-.704 64.7 64.7 0 0 0-15.685 1.97 38.4 38.4 0 0 0-13.282 6.193 32.4 32.4 0 0 0-9.468 10.557 31.4 31.4 0 0 0-3.532 15.483c-.16 4.49.967 8.933 3.25 12.809a27.1 27.1 0 0 0 8.195 8.304 46.2 46.2 0 0 0 11.305 5.208l12.434 3.66 11.022 3.237a55 55 0 0 1 6.924 2.674 10.9 10.9 0 0 1 3.533 2.534 6.9 6.9 0 0 1 .989 3.519 8.14 8.14 0 0 1-1.272 4.644 14.1 14.1 0 0 1-3.391 2.956 15.9 15.9 0 0 1-4.38 1.408c-1.41.14-2.83.14-4.24 0a29.5 29.5 0 0 1-9.043-1.408 9.45 9.45 0 0 1-6.218-6.052 17.4 17.4 0 0 1-1.13-6.756h-32.076a34.7 34.7 0 0 0 9.326 24.35 35.5 35.5 0 0 0 9.185 6.616 60.6 60.6 0 0 0 10.173 3.94 52.3 52.3 0 0 0 9.61 1.831h7.488a79 79 0 0 0 17.24-1.83 45 45 0 0 0 15.119-5.63c9.96-5.814 15.843-16.667 15.26-28.151zm203.195 33.78-37.728-103.454h-31.37l-38.152 103.454h32.076l4.663-14.075h33.066l4.38 14.075zm123.924-103.454H635.87v55.316l-30.24-55.316h-32.358v103.454h30.239v-56.301l31.793 56.301h31.229zm137.065 46.449h-42.39v21.817h14.13a12.8 12.8 0 0 1-6.218 8.586 26 26 0 0 1-4.945 2.11 24.7 24.7 0 0 1-5.511.705 23.1 23.1 0 0 1-11.87-2.815 23.55 23.55 0 0 1-7.065-6.897 28.1 28.1 0 0 1-3.533-8.727 46 46 0 0 1-.848-8.305v-4.644a53 53 0 0 1 0-6.334 40 40 0 0 1 1.837-6.757A17.4 17.4 0 0 1 741 453.51a16.7 16.7 0 0 1 6.076-4.504 19.7 19.7 0 0 1 9.185-1.83 14.16 14.16 0 0 1 9.891 3.66 14.06 14.06 0 0 1 5.228 9.29h30.664a46.54 46.54 0 0 0-15.685-28.151 48.74 48.74 0 0 0-31.794-9.712 53.9 53.9 0 0 0-17.804 3.096 48.7 48.7 0 0 0-16.391 9.712 49 49 0 0 0-12.153 17.172 58.9 58.9 0 0 0-4.804 25.195 63.1 63.1 0 0 0 3.109 20.41 49.6 49.6 0 0 0 9.891 16.75 47.7 47.7 0 0 0 36.315 15.623c5.6.028 11.157-.974 16.392-2.956a30.8 30.8 0 0 0 13.14-10.134l.99 10.697h20.348zm126.327 30.403h-55.533v-12.809h49.033v-23.928h-49.033v-14.076h53.978v-26.039h-86.054v103.454h87.609zm5.37-406.638h56.52v281.507h98.914V0h-70.652c-20.232 26.832-51.174 43.578-84.783 45.886zm110.075 406.638h-45.641v-76.852h-31.935v103.454h77.576zm124.207 0h-55.109v-12.809h49.033v-23.928h-49.033v-14.076h53.978v-26.039h-86.054v103.454h87.609zm124.913-6.616a26.5 26.5 0 0 0-2.402-12.105 24.5 24.5 0 0 0-6.642-8.445 41 41 0 0 0-9.326-5.63 74 74 0 0 0-10.315-3.941l-10.88-2.815a73 73 0 0 1-9.61-2.534 25.5 25.5 0 0 1-6.782-3.096 7.04 7.04 0 0 1-2.967-4.645 4.9 4.9 0 0 1 1.272-3.52 6.07 6.07 0 0 1 2.826-2.11 15.2 15.2 0 0 1 3.815-.986 17.5 17.5 0 0 1 3.674 0 20.6 20.6 0 0 1 4.945 0 14.2 14.2 0 0 1 4.522 1.97 9 9 0 0 1 3.109 3.379 7.16 7.16 0 0 1 0 4.926h30.38a35.6 35.6 0 0 0-3.956-15.905 31 31 0 0 0-9.609-10.416 42.5 42.5 0 0 0-14.13-5.77 74.3 74.3 0 0 0-15.12-.704 62.7 62.7 0 0 0-15.543 1.97 37.9 37.9 0 0 0-14.13 6.193 32.4 32.4 0 0 0-9.468 10.557 33 33 0 0 0-3.533 15.483c-.16 4.49.967 8.933 3.25 12.809a27.1 27.1 0 0 0 8.196 8.304 48.8 48.8 0 0 0 11.304 5.208l12.435 3.66 11.163 3.237a62 62 0 0 1 6.783 2.674 10.9 10.9 0 0 1 3.532 2.534 5.75 5.75 0 0 1 .99 3.519 8.2 8.2 0 0 1-1.273 4.644 9.9 9.9 0 0 1-3.39 2.956 16.7 16.7 0 0 1-4.24 1.408 23.7 23.7 0 0 1-4.38 0 29.5 29.5 0 0 1-9.044-1.408 9.45 9.45 0 0 1-6.217-6.052 20.5 20.5 0 0 1-.424-7.32h-32.5a35.2 35.2 0 0 0 2.684 14.076 33.1 33.1 0 0 0 6.642 10.275 38 38 0 0 0 9.185 6.616 60.6 60.6 0 0 0 10.173 3.94 52.3 52.3 0 0 0 9.61 1.831h7.488a79 79 0 0 0 17.24-1.83 45 45 0 0 0 15.402-5.912 32 32 0 0 0 11.163-10.979 31.16 31.16 0 0 0 4.521-16.046zM1300 0h-70.652c-20.245 26.817-51.18 43.56-84.783 45.886v48.278h56.522v281.508H1300Z"/>
  <path fill="#000" fill-rule="evenodd" d="m774.237 188.019 105.1 187.372-121.051.21-44.458-79.516-44.45 79.515-121.042-.21 105.1-187.371L548.336 0h120.438l45.054 80.337L758.899 0h120.438zM418.393.122c102.439 0 185.487 84.01 185.487 187.635S520.832 375.39 418.393 375.39c-102.447 0-185.487-84.01-185.487-187.634C232.906 84.13 315.946.122 418.393.122m32.49 110.488c0-17.58-15.06-33.324-31.98-33.324-16.936 0-30.623 15.744-30.623 33.324l-.035 153.707c0 17.597 13.722 31.847 30.65 31.847s31.988-13.804 31.988-31.392zM.707 375.39V0h230.74l6.8 102.393H113.03v49.129h102.12v102.716H113.03V375.39z" class="shp0"/>
</svg>
